<?xml version="1.0" standalone="no"?>
<!DOCTYPE svg PUBLIC "-//W3C//DTD SVG 20010904//EN"
 "http://www.w3.org/TR/2001/REC-SVG-20010904/DTD/svg10.dtd">
<svg version="1.0" xmlns="http://www.w3.org/2000/svg"
 width="300.000000pt" height="300.000000pt" viewBox="0 0 300.000000 300.000000"
 preserveAspectRatio="xMidYMid meet">
<metadata>
Created by potrace 1.11, written by Peter Selinger 2001-2013
</metadata>
<g transform="translate(0.000000,300.000000) scale(0.100000,-0.100000)"
fill="#000000" stroke="none">
<path d="M495 2536 c-120 -29 -231 -123 -288 -243 l-32 -68 0 -725 0 -725 32
-68 c60 -126 176 -220 307 -247 36 -7 266 -10 737 -8 682 3 684 3 739 25 111
46 209 143 252 253 19 48 22 80 26 251 4 173 2 197 -13 212 -28 28 -54 19
-113 -37 l-57 -55 -6 -143 c-6 -152 -12 -174 -65 -237 -15 -18 -45 -42 -68
-54 l-41 -22 -685 0 c-683 0 -685 0 -725 22 -52 28 -89 68 -114 123 -20 44
-21 63 -21 704 0 488 3 669 12 700 18 61 100 139 162 155 36 9 223 12 734 11
l686 -2 43 46 c67 70 54 103 -52 131 -51 13 -155 15 -730 14 -489 0 -683 -4
-720 -13z"/>
<path d="M2405 2526 c-16 -8 -65 -49 -107 -93 l-78 -78 213 -213 213 -213 80
81 c146 150 144 173 -44 364 -164 166 -201 186 -277 152z"/>
<path d="M1622 1757 l-502 -502 2 -210 3 -210 210 -3 210 -2 503 502 502 503
-212 212 -213 213 -503 -503z m532 281 c9 -16 -28 -56 -264 -293 -151 -151
-283 -275 -292 -275 -9 0 -22 8 -27 18 -9 14 33 61 267 295 152 152 283 276
291 275 8 -2 19 -11 25 -20z m-599 -778 l110 -110 -85 -85 c-80 -80 -87 -85
-127 -85 l-43 0 0 70 0 70 -70 0 -70 0 0 42 c0 40 5 48 82 125 46 46 85 83 88
83 3 0 55 -49 115 -110z"/>
</g>
</svg>
